<?xml version="1.0" encoding="utf-8"?>
<!-- Generator: Adobe Illustrator 20.0.0, SVG Export Plug-In . SVG Version: 6.00 Build 0)  -->
<svg version="1.1" id="Livello_1" xmlns="http://www.w3.org/2000/svg" xmlns:xlink="http://www.w3.org/1999/xlink" x="0px" y="0px"
	 viewBox="0 0 30 30" style="enable-background:new 0 0 30 30;" xml:space="preserve">
<style type="text/css">
	.st0{clip-path:url(#SVGID_2_);fill:none;stroke:#000000;stroke-width:0.25;stroke-miterlimit:10;}
</style>
<g>
	<defs>
		<rect id="SVGID_1_" x="0" width="30" height="30"/>
	</defs>
	<clipPath id="SVGID_2_">
		<use xlink:href="#SVGID_1_"  style="overflow:visible;"/>
	</clipPath>
	<line class="st0" x1="2" y1="0" x2="-28.1" y2="30.1"/>
	<line class="st0" x1="4" y1="0" x2="-26.1" y2="30.1"/>
	<line class="st0" x1="6" y1="0" x2="-24.1" y2="30.1"/>
	<line class="st0" x1="8" y1="0" x2="-22.1" y2="30.1"/>
	<line class="st0" x1="10" y1="0" x2="-20.1" y2="30.1"/>
	<line class="st0" x1="12" y1="0" x2="-18.1" y2="30.1"/>
	<line class="st0" x1="14" y1="0" x2="-16.1" y2="30.1"/>
	<line class="st0" x1="16" y1="0" x2="-14.1" y2="30.1"/>
	<line class="st0" x1="18" y1="0" x2="-12.1" y2="30.1"/>
	<line class="st0" x1="20" y1="0" x2="-10.1" y2="30.1"/>
	<line class="st0" x1="22" y1="0" x2="-8.1" y2="30.1"/>
	<line class="st0" x1="24" y1="0" x2="-6.1" y2="30.1"/>
	<line class="st0" x1="26" y1="0" x2="-4.1" y2="30.1"/>
	<line class="st0" x1="28" y1="0" x2="-2.1" y2="30.1"/>
	<line class="st0" x1="30" y1="0" x2="-0.1" y2="30.1"/>
	<line class="st0" x1="32" y1="0" x2="1.9" y2="30.1"/>
	<line class="st0" x1="34" y1="0" x2="3.9" y2="30.1"/>
	<line class="st0" x1="36" y1="0" x2="5.9" y2="30.1"/>
	<line class="st0" x1="38" y1="0" x2="7.9" y2="30.1"/>
	<line class="st0" x1="40" y1="0" x2="9.9" y2="30.1"/>
	<line class="st0" x1="42" y1="0" x2="11.9" y2="30.1"/>
	<line class="st0" x1="44" y1="0" x2="13.9" y2="30.1"/>
	<line class="st0" x1="46" y1="0" x2="15.9" y2="30.1"/>
	<line class="st0" x1="48" y1="0" x2="17.9" y2="30.1"/>
	<line class="st0" x1="50" y1="0" x2="19.9" y2="30.1"/>
	<line class="st0" x1="52" y1="0" x2="21.9" y2="30.1"/>
	<line class="st0" x1="54" y1="0" x2="23.9" y2="30.1"/>
	<line class="st0" x1="56" y1="0" x2="25.9" y2="30.1"/>
	<line class="st0" x1="58" y1="0" x2="27.9" y2="30.1"/>
	<line class="st0" x1="60" y1="0" x2="29.9" y2="30.1"/>
</g>
</svg>
