<?xml version="1.0" encoding="UTF-8" standalone="no"?>
<!-- Created with Inkscape (http://www.inkscape.org/) -->

<svg
   width="45.808689mm"
   height="46.08913mm"
   viewBox="0 0 45.808689 46.089131"
   version="1.1"
   xmlns="http://www.w3.org/2000/svg">
  <defs
     id="defs2616" />
  <g
     transform="translate(-30.076087,-12.680433)">
    <path
       d="M 40.076059,58.769563 H 30.982947 V 28.174434 h 9.093112 z M 35.468228,23.680928 c -3.039207,0 -5.392141,-2.480022 -5.392141,-5.500248 0,-3.04478 2.352934,-5.500247 5.392141,-5.500247 3.039207,0 5.49018,2.480023 5.49018,5.500247 0,3.044781 -2.450973,5.500248 -5.49018,5.500248 z m 40.41655,19.128094 V 48.30927 58.769563 H 66.914216 V 58.646789 55.945775 42.21971 c -0.12255,-3.486764 -2.475484,-6.18778 -5.955865,-6.18778 -3.480382,0 -6.397041,2.701016 -6.51959,6.18778 v 11.909019 4.616279 H 45.468199 V 28.14988 h 8.970562 v 4.272513 c 1.911759,-2.799233 5.049006,-4.616279 8.651937,-4.616279 h 2.475483 c 5.735278,0 10.318597,4.714498 10.318597,10.337519 z"
       style="clip-rule:evenodd;fill:#c8c2b8;fill-rule:evenodd;stroke-width:0.245321"
       id="path3046" />
  </g>
</svg>
