<?xml version="1.0" encoding="UTF-8" standalone="no"?>
<svg
   width="87.762291mm"
   height="87.894577mm"
   viewBox="0 0 87.762291 87.894577"
   version="1.1"
   xmlns="http://www.w3.org/2000/svg">
  <defs
     id="defs1533" />
  <g
     transform="translate(-78.593081,-52.118431)">
    <path
       class="st1"
       d="M 148.99394,52.481253 H 96.447682 c -9.76313,0 -17.67417,7.91104 -17.67417,17.67417 v 52.546257 c 0,9.76312 7.91104,17.67416 17.67417,17.67416 h 52.546258 c 9.76312,0 17.67416,-7.91104 17.67416,-17.67416 V 70.155423 c 0,-9.78958 -7.91104,-17.67417 -17.67416,-17.67417 z M 108.2481,120.55855 H 98.432052 V 87.591463 h 9.816048 z m -4.97416,-37.808957 c -3.280847,0 -5.820848,-2.6723 -5.820848,-5.92667 0,-3.28083 2.540001,-5.92667 5.820848,-5.92667 3.28083,0 5.92666,2.67229 5.92666,5.92667 0,3.28083 -2.64583,5.92667 -5.92666,5.92667 z m 43.62979,20.611047 v 5.92666 11.27125 h -9.68375 v -0.13229 -2.91041 -14.79021 c -0.13229,-3.757094 -2.67229,-6.667507 -6.42938,-6.667507 -3.75708,0 -6.90562,2.910413 -7.03791,6.667507 v 12.83229 4.97417 h -9.68375 V 87.565003 h 9.68375 v 4.60375 c 2.06375,-3.01625 5.45041,-4.97416 9.33979,-4.97416 h 2.67229 c 6.19125,0 11.13896,5.08 11.13896,11.13895 z"
       id="path1364"
       style="clip-rule:evenodd;fill:#c8c2b8;fill-rule:evenodd;stroke-width:0.264583" />
  </g>
</svg>
