<?xml version="1.0" encoding="UTF-8" standalone="no"?>
<svg
   width="87.762291mm"
   height="87.894577mm"
   viewBox="0 0 87.762291 87.894577"
   version="1.1"
   xmlns="http://www.w3.org/2000/svg">
  <defs
     id="defs1533" />
  <g
     transform="translate(-78.593081,-52.118431)">
    <path
       class="st1"
       d="m 96.325817,140.19352 h 52.625633 c 9.60437,0 17.48896,-7.88458 17.48896,-17.64771 V 69.94665 c 0,-9.60438 -7.88459,-17.647711 -17.48896,-17.647711 H 96.325817 c -9.73666,0 -17.6477,8.043331 -17.6477,17.647711 v 52.62562 c 0.0264,9.73667 7.91104,17.62125 17.6477,17.62125 z m 15.187093,-29.71271 c 0,0 -7.43479,0.60854 -11.13896,-8.36083 0,0 2.77812,1.08479 5.58271,-0.3175 0,0 -8.678343,-1.40229 -9.445633,-11.77396 0,0 2.77813,2.16959 5.873753,1.40229 0,0 -9.604373,-5.715 -4.180413,-16.08666 0,0 10.212913,12.99104 24.923753,12.54125 -2.32834,-12.22375 12.3825,-19.49979 21.03437,-10.68917 0,0 3.86292,-1.08479 7.27604,-3.25437 0,0 -1.24354,4.18041 -5.42396,6.79979 0,0 4.63021,-0.60854 6.6675,-1.85209 0,0 -2.01083,4.18042 -5.715,5.715 2.01084,28.01938 -28.15166,45.03209 -52.625623,31.115 -0.0265,0.0265 12.065003,0.66146 17.171463,-5.23875 z"
       id="path1382"
       style="clip-rule:evenodd;fill:#c8c2b8;fill-rule:evenodd;stroke-width:0.264583" />
  </g>
</svg>
