<?xml version="1.0" encoding="UTF-8" standalone="no"?>
<svg
   width="87.762291mm"
   height="87.894577mm"
   viewBox="0 0 87.762291 87.894577"
   version="1.1"
   id="svg1536"
   xmlns="http://www.w3.org/2000/svg">
  <defs
     id="defs1533" />
  <g
     transform="translate(-78.593081,-52.118431)">
    <path
       class="st1"
       d="m 149.23939,53.152768 h -52.705 c -9.76313,0 -17.67417,7.91104 -17.67417,17.51542 v 52.704992 c 0,9.76312 7.91104,17.67416 17.67417,17.67416 h 52.705 c 9.60437,0 17.51541,-7.91104 17.51541,-17.67416 V 70.668188 c 0,-9.60438 -7.91104,-17.51542 -17.51541,-17.51542 z m 1.32291,55.112702 c -0.87312,6.61458 -4.18041,7.59354 -10.68916,8.14917 -5.60917,0.55562 -12.01209,0.66145 -16.98625,0.66145 -4.94771,0 -11.45646,-0.10583 -16.98625,-0.66145 -6.50875,-0.55563 -9.92188,-1.53459 -10.795,-8.14917 -0.3175,-2.8575 -0.55563,-7.06438 -0.55563,-11.244782 0,-4.18042 0.21167,-8.255 0.55563,-11.24479 0.87312,-6.50875 4.28625,-7.59355 10.795,-8.14917 5.50333,-0.44979 12.01208,-0.66146 16.98625,-0.66146 4.94771,0 11.35062,0.21167 16.98625,0.66146 6.50875,0.55562 9.81604,1.64042 10.68916,8.14917 0.4498,2.96333 0.66146,7.06437 0.66146,11.24479 0,4.180402 -0.23812,8.387282 -0.66146,11.244782 z"
       id="path1328"
       style="clip-rule:evenodd;fill:#c8c2b8;fill-rule:evenodd;stroke-width:0.264583" />
    <polygon
       class="st1"
       points="1328.3,829.6 1328.3,894.2 1384.1,861.7 "
       id="polygon1330"
       style="clip-rule:evenodd;fill:#c8c2b8;fill-rule:evenodd"
       transform="matrix(0.26458333,0,0,0.26458333,-234.3006,-130.97078)" />
  </g>
</svg>
