<?xml version="1.0" encoding="UTF-8" standalone="no"?>
<svg
   width="87.762291mm"
   height="87.894577mm"
   viewBox="0 0 87.762291 87.894577"
   version="1.1"
   xmlns="http://www.w3.org/2000/svg">
  <defs
     id="defs1533" />
  <g
     transform="translate(-78.593081,-52.118431)">
    <path
       class="st1"
       d="m 97.170278,140.28921 h 52.466892 c 9.73666,0 17.64771,-7.88459 17.64771,-17.64771 V 70.042327 c 0,-9.60437 -7.88459,-17.64771 -17.64771,-17.64771 H 97.170278 c -9.73666,0 -17.6477,8.04334 -17.6477,17.64771 v 52.625633 c 0,9.73666 7.88458,17.62125 17.6477,17.62125 z m -2.51354,-57.097093 c 0,-8.49312 6.985012,-15.50458 15.504592,-15.50458 h 26.45834 c 8.49312,0 15.50458,6.985 15.50458,15.50458 v 26.326043 c 0,8.49313 -6.985,15.50459 -15.50458,15.50459 h -26.45834 c -8.49312,0 -15.504592,-6.985 -15.504592,-15.50459 z"
       id="path1340"
       style="clip-rule:evenodd;fill:#c8c2b8;fill-rule:evenodd;stroke-width:0.264583" />
    <path
       class="st1"
       d="m 110.29363,120.07504 h 26.19375 c 5.9002,0 10.68916,-4.78896 10.68916,-10.68917 V 83.324417 c 0,-5.90021 -4.78896,-10.68917 -10.68916,-10.68917 h -26.19375 c -5.90021,0 -10.689182,4.78896 -10.689182,10.68917 v 26.061453 c 0,5.90021 4.788972,10.68917 10.689182,10.68917 z m 28.52208,-42.386253 c 1.77271,0 3.28083,1.50813 3.28083,3.28083 0,1.77271 -1.50812,3.28084 -3.28083,3.28084 -1.93146,0 -3.28083,-1.50813 -3.28083,-3.28084 0,-1.7727 1.34937,-3.28083 3.28083,-3.28083 z m -15.50458,3.01625 h 0.13229 c 8.49312,0 15.63687,7.14375 15.63687,15.63688 0,8.651873 -7.14375,15.636873 -15.63687,15.636873 h -0.13229 c -8.49313,0 -15.50459,-6.985 -15.50459,-15.636873 0.0265,-8.49313 7.01146,-15.63688 15.50459,-15.63688 z"
       id="path1344"
       style="clip-rule:evenodd;fill:#c8c2b8;fill-rule:evenodd;stroke-width:0.264583" />
  </g>
</svg>
