<?xml version="1.0" encoding="UTF-8" standalone="no"?>
<!-- Created with Inkscape (http://www.inkscape.org/) -->

<svg
   width="58.340668mm"
   height="47.364197mm"
   viewBox="0 0 58.340668 47.364197"
   version="1.1"
   xmlns="http://www.w3.org/2000/svg">
  <defs
     id="defs2616" />
  <g
     transform="translate(-23.062114,-11.595023)">
    <path
       d="m 40.233611,48.768053 c 0,0 -7.434788,0.608541 -11.138954,-8.360834 0,0 2.778125,1.084792 5.582708,-0.3175 0,0 -8.678333,-1.402291 -9.445625,-11.773959 0,0 2.778125,2.169583 5.87375,1.402291 0,0 -9.604375,-5.715 -4.180417,-16.086666 0,0 10.212917,12.991041 24.923748,12.54125 -2.32833,-12.22375 12.3825,-19.4997917 21.03438,-10.689167 0,0 3.86291,-1.084792 7.27604,-3.254375 0,0 -1.24354,4.180417 -5.42396,6.799792 0,0 4.63021,-0.608542 6.6675,-1.852084 0,0 -2.01083,4.180417 -5.715,5.715 2.01083,28.019377 -28.15167,45.03208 -52.625624,31.115 -0.02646,0.0265 12.064999,0.66146 17.171454,-5.238748 z"
       style="clip-rule:evenodd;fill:#c8c2b8;fill-rule:evenodd;stroke-width:0.264583"
       id="path2610" />
  </g>
</svg>
