<svg xmlns="http://www.w3.org/2000/svg" width="226" height="442" viewBox="0 0 226 442">
  <defs>
    <style>
      .bage {
        fill: #c8c2b8;
        fill-rule: evenodd;
      }
    </style>
  </defs>
  <path class="bage" d="M222.787,101.854h0.189a3.46,3.46,0,0,1,2.268.752,3.082,3.082,0,0,1,.756,2.255V149.4a2.682,2.682,0,0,1-.756,1.973,3.12,3.12,0,0,1-2.268.752h-0.189V408.174a32.525,32.525,0,0,1-9.925,23.96,32.913,32.913,0,0,1-24.1,9.866H36.58a32.639,32.639,0,0,1-23.914-9.866,32.523,32.523,0,0,1-9.925-23.96V163.306a2.36,2.36,0,0,1-1.8-.658,2.323,2.323,0,0,1-.756-1.879V134.741a2.976,2.976,0,0,1,.756-1.879,2.332,2.332,0,0,1,1.8-.845v-9.679H2.552a2.2,2.2,0,0,1-1.8-.845A2.719,2.719,0,0,1,0,119.8V94.431a3.085,3.085,0,0,1,.756-2.067,2.333,2.333,0,0,1,1.8-.846H2.741V76.672H2.457a1.417,1.417,0,0,1-.945-0.282,1.625,1.625,0,0,1-.284-1.128V61.732a2.122,2.122,0,0,1,.284-1.221,1.1,1.1,0,0,1,.945-0.376H2.835V33.825A32.524,32.524,0,0,1,12.76,9.865,32.641,32.641,0,0,1,36.674,0h152.18a32.915,32.915,0,0,1,24.1,9.866,32.525,32.525,0,0,1,9.924,23.961v68.029h-0.094ZM167.775,17.1a9.633,9.633,0,0,1-3.5,7.517,12.109,12.109,0,0,1-8.223,3.1H70.229a12.153,12.153,0,0,1-8.507-3.1,9.707,9.707,0,0,1-3.4-7.517V13.06H36.863a20.4,20.4,0,0,0-14.84,6.108,20.162,20.162,0,0,0-6.144,14.752V408.268a20.9,20.9,0,0,0,6.144,14.94,20.126,20.126,0,0,0,14.84,6.2H188.381a20.127,20.127,0,0,0,14.84-6.2,20.588,20.588,0,0,0,6.144-14.94V34.013a20.164,20.164,0,0,0-6.144-14.752,20.4,20.4,0,0,0-14.84-6.108H167.775V17.1h0Zm-42.44,2.067a1.435,1.435,0,0,0,.567-1.41,1.135,1.135,0,0,0-.567-0.846,1.534,1.534,0,0,0-.945-0.376H101.705a1.6,1.6,0,0,0-1.134.376,1.5,1.5,0,0,0-.284.846,2.407,2.407,0,0,0,.284,1.41,1.649,1.649,0,0,0,1.134.282H124.39A1.831,1.831,0,0,0,125.335,19.167Zm8.413-3.383a3.032,3.032,0,0,0-.851,1.973,3.113,3.113,0,0,0,.851,2.349,3.155,3.155,0,0,0,2.363.846,3.3,3.3,0,0,0,2.079-.846,2.909,2.909,0,0,0,1.04-2.349,2.739,2.739,0,0,0-1.04-1.973,3.162,3.162,0,0,0-2.079-.94A2.882,2.882,0,0,0,133.748,15.784Z"/>
</svg>
