<?xml version="1.0" encoding="UTF-8" standalone="no"?>
<svg
   width="87.762291mm"
   height="87.894577mm"
   viewBox="0 0 87.762291 87.894577"
   version="1.1"
   xmlns="http://www.w3.org/2000/svg">
  <defs
     id="defs1533" />
  <g
     transform="translate(-78.593081,-52.118431)">
    <path
       class="st1"
       d="m 96.240789,140.01301 h 52.466871 c 9.73667,0 17.64771,-7.88458 17.64771,-17.64771 V 69.766139 c 0,-9.604375 -7.88458,-17.647708 -17.64771,-17.647708 H 96.240789 c -9.736666,0 -17.647708,8.043333 -17.647708,17.647708 v 52.625621 c 0,9.73667 7.884584,17.62125 17.647708,17.62125 z m 6.799791,-50.58833 h 9.97479 v -8.202083 c 0,-8.202083 4.84188,-15.08125 13.59959,-14.525625 l 9.15458,0.396875 v 9.154583 h -5.10646 c -2.83104,0 -5.79437,1.74625 -5.79437,4.841875 v 8.334375 h 10.50395 l -1.74625,11.03312 h -8.7577 v 27.33146 H 113.01537 V 100.4578 h -9.97479 z"
       id="path1334"
       style="clip-rule:evenodd;fill:#c8c2b8;fill-rule:evenodd;stroke-width:0.264583" />
  </g>
</svg>
